<svg xmlns="http://www.w3.org/2000/svg" id="Logo_couleurs" data-name="Logo couleurs" viewBox="0 0 357.58 253.61"><defs><style>.cls-1,.cls-3{fill:#ddbe92;}.cls-1{stroke:#ddbe92;stroke-miterlimit:10;}.cls-2{fill:#3f342f;}.cls-4{fill:#af8f7a;}.cls-5{fill:#2d2521;}.cls-6{fill:#a55937;}.cls-7{fill:#e2d4cc;}.cls-8{fill:#110f0f;}</style></defs><path class="cls-1" d="M194.7,202.13c0-.23-.23-.34-.46-.34-1.15,0-2.19.57-3.34.69l-5.52,8.16H184l5.52-8.28a1.77,1.77,0,0,1-1.26-1.84c0-1.72,3.1-5.52,4.71-5.52a1.13,1.13,0,0,1,1.15,1c0,.92-2,3.22-2,3.68s.69.8,1.26.8.92-.23,1.61-.23c1.38,0,2.88.69,2.88,2.07a6.21,6.21,0,0,1-1,2.88l-8.51,14.37a6.31,6.31,0,0,0-1.26,3.22c0,.81.11,1,.92,1,3,0,9.08-8.05,13.11-13.23h1.38c-3.22,4.26-10.35,14.61-14.49,14.61-2.3,0-3.57-1.27-3.57-3.68a13.3,13.3,0,0,1,2-5.18L193.09,205A25.48,25.48,0,0,0,194.7,202.13Z" transform="translate(-21.16 -48.94)"></path><path class="cls-1" d="M201.6,221.22c0,2,1.84,3.11,3.79,3.11,4.49,0,10.24-7.36,14.49-13.69h1.38c-4.48,6.44-9.54,15.07-16.33,15.07a6.2,6.2,0,0,1-6.44-6.33c0-10.12,11.85-20.58,17.37-20.58a2.93,2.93,0,0,1,3.22,3.1c0,5.52-9,9.78-15.07,10.93A18.76,18.76,0,0,0,201.6,221.22Zm15.87-19.55a1.48,1.48,0,0,0-1.5-1.61c-2.3,0-7.47,5.06-10.92,11C210.68,209.84,217.47,205.24,217.47,201.67Z" transform="translate(-21.16 -48.94)"></path><path class="cls-1" d="M239.32,199.83h3.79l-11.27,19.32a6.31,6.31,0,0,0-1.26,3.22c0,.81.34,1.61,1.15,1.61,3,0,9.08-8.16,13.11-13.34h1.38c-3.22,4.26-10.35,14.61-14.49,14.61a3.65,3.65,0,0,1-3.57-3.8,15.49,15.49,0,0,1,.69-3.33c-2.41,2.87-6.32,6.55-9,6.55-2.18,0-3.68-2.41-3.68-4.83,0-8.74,13.69-21,18.75-21a4.19,4.19,0,0,1,3.56,1.95Zm-2.07,2.3a1.85,1.85,0,0,0-2-2.07c-4.37,0-16.33,15.18-16.33,21.28,0,1,.35,1.95,1.38,1.95,2.88,0,8.51-7.36,10.24-9.89l5.17-7.7A8.72,8.72,0,0,0,237.25,202.13Z" transform="translate(-21.16 -48.94)"></path><path class="cls-1" d="M244.84,210.76c4-4.83,8.28-11.5,12.3-11.5,1.73,0,3.45,1.15,3.45,2.87s-.69,2.76-1.15,4.37c2.53-2.64,6.67-6.78,10.12-6.78a3.34,3.34,0,0,1,3.34,3.33,8.07,8.07,0,0,1-1.15,3.8c2.76-3,6.67-6.56,9.66-6.56a3.58,3.58,0,0,1,3.45,3.68c0,4.49-9.32,16.1-9.32,19.21,0,.57.23,1,.81,1,3,0,9.54-8.39,13.57-13.57h1.38c-3.91,5.18-11,14.84-14.95,14.84a3.23,3.23,0,0,1-3.34-3.22c0-5.87,9.32-16.79,9.32-19.78,0-.69-.35-1.15-1-1.15-3.56,0-9.89,7.93-12.42,12L262,224.44h-3.91l10.12-18.05c.58-1,1.84-3.34,1.84-4.26a1.09,1.09,0,0,0-1.15-1.15c-2.64,0-9.54,7.13-12.42,12l-6.78,11.5h-3.91l7.7-13.8c1.84-3.45,4.14-7.93,4.14-9.08,0-.46-.34-1-.8-1-2.65,0-7.25,5.87-10.58,10.12Z" transform="translate(-21.16 -48.94)"></path><path class="cls-2" d="M100.35,93.18a41.65,41.65,0,0,1-8.43-2.59,12.77,12.77,0,0,1-4-2.5,5.89,5.89,0,0,1-.44-.53,2.46,2.46,0,0,1-.19-.32l-.1-.17a.42.42,0,0,0,0-.07,3.52,3.52,0,0,0-.52-.6,16.81,16.81,0,0,0-1.54-1.27A71.81,71.81,0,0,0,70,77.52a46.1,46.1,0,0,0-8.14-2.36,32.39,32.39,0,0,0-4.26-.4l-4.37-.29C47.37,74,41.59,73.53,35.76,73l.76-1.12a67.54,67.54,0,0,0,5.38,6.71c1.91,2.14,3.9,4.2,6,6.14a59.62,59.62,0,0,0,13.88,9.71A39,39,0,0,0,77.9,98.7a42.7,42.7,0,0,0,16.77-3l.13.27a36,36,0,0,1-16.89,5.15,37.05,37.05,0,0,1-17.55-3.82A54.24,54.24,0,0,1,46,86.69a65.14,65.14,0,0,1-10.73-14.1l-.81-1.42,1.56.3a107.48,107.48,0,0,0,17.24,2c1.45,0,2.9,0,4.34,0a41,41,0,0,1,4.44,0,37.13,37.13,0,0,1,8.77,1.72A43.27,43.27,0,0,1,75,76.65c1.37.56,2.71,1.2,4,1.88a44.42,44.42,0,0,1,7.55,4.78,12.94,12.94,0,0,1,1.72,1.61A5.56,5.56,0,0,1,89,86.05l.12.24a.51.51,0,0,0,.07.15,3.29,3.29,0,0,0,.23.33,12.54,12.54,0,0,0,3.18,2.41,70.69,70.69,0,0,0,7.8,3.71Z" transform="translate(-21.16 -48.94)"></path><path class="cls-2" d="M21.35,101.7c3.23,1.57,6.31,3.16,9.45,4.65,1.57.73,3.14,1.45,4.68,2.25.76.43,1.55.79,2.33,1.2a23.36,23.36,0,0,0,2.37,1.13,24.08,24.08,0,0,0,10.25,1.93l2.6-.07c.87-.07,1.73-.16,2.58-.21l1.28-.08,1.27-.2,2.53-.37-.68.29s.08-.1.09-.13,0-.08,0,0,0,.13,0,.17,0,0,0,0a2.85,2.85,0,0,0-.59-.42,7.19,7.19,0,0,0-1-.45A32.11,32.11,0,0,0,53.83,110c-3.3-.77-6.71-1.36-10.13-2.21l0-.3a46.58,46.58,0,0,1,10.56-.19,22.7,22.7,0,0,1,5.39,1.11,8.54,8.54,0,0,1,1.4.63,4.94,4.94,0,0,1,1.45,1.17,3.18,3.18,0,0,1,.61,1.11,2.86,2.86,0,0,1,0,1.45,3.1,3.1,0,0,1-.54,1.14,4,4,0,0,1-.79.82l-.34.25-.35,0a33.69,33.69,0,0,1-10.89-.42L39.78,112.2c-.89-.16-1.77-.36-2.64-.58a23.64,23.64,0,0,1-2.62-.73,28,28,0,0,1-4.92-2.24,31.17,31.17,0,0,1-8.44-6.72Z" transform="translate(-21.16 -48.94)"></path><path class="cls-2" d="M374.78,233.11c-.45-4-1.1-7.86-1.87-11.75s-1.7-7.73-2.63-11.59c-1.85-7.72-4-15.35-6.29-22.93v-.09l0-.13,2.3-.44,0,.1-2.28.53q-3-9.92-6.58-19.63T349.6,148a212,212,0,0,0-20-36.17,146.84,146.84,0,0,0-13.07-16.06,142.39,142.39,0,0,0-15.31-14,132.7,132.7,0,0,0-17.28-11.32A140.14,140.14,0,0,0,265.13,62a149.57,149.57,0,0,0-40.2-8.47,191.14,191.14,0,0,0-20.59-.34Q194,53.64,183.79,55a255.32,255.32,0,0,0-40.37,8.84q-9.93,3-19.63,6.67c-6.46,2.44-12.86,5.11-19.09,8.13l-.14-.26a228.49,228.49,0,0,1,38.2-16.62,239,239,0,0,1,40.6-9.8A191.59,191.59,0,0,1,204.22,50a166.67,166.67,0,0,1,21,.49A145.79,145.79,0,0,1,266,59.79,134,134,0,0,1,301.91,81a143.33,143.33,0,0,1,15.25,14.21c2.39,2.52,4.71,5.11,6.93,7.8s4.4,5.38,6.47,8.17a190.66,190.66,0,0,1,11.63,17.34A199.66,199.66,0,0,1,352,146.94c2.94,6.32,5.57,12.78,7.92,19.33s4.48,13.19,6.35,19.89l-2.27.53,0-.11,2.29-.44,0,.13,0-.09c2.17,7.67,3.95,15.45,5.56,23.25.84,3.88,1.54,7.82,2.11,11.76a115.77,115.77,0,0,1,1.17,11.9Z" transform="translate(-21.16 -48.94)"></path><path class="cls-2" d="M63.36,133.26c.51,16.29.67,32.58.68,48.87,0,8.15,0,16.29-.13,24.43L63.37,231q-.32,12.22-.16,24.43c.06,4.07.14,8.15.3,12.21.07,2,.17,4.07.31,6.09a52.94,52.94,0,0,0,.62,5.95,2.55,2.55,0,0,0,.08.25s.06,0-.14-.16l0,0h0l0,0a.85.85,0,0,0,.41,0,4.9,4.9,0,0,0,1.25-.37,21.36,21.36,0,0,1,3-1,9.07,9.07,0,0,1,3.37-.18,10.12,10.12,0,0,1,3.2,1.05,18.44,18.44,0,0,1,5,4.05c.72.79,1.37,1.6,2,2.36s1.31,1.53,2,2.27A58.41,58.41,0,0,0,93.38,296a22.55,22.55,0,0,0,5,2.81,8.72,8.72,0,0,0,5.08.61l-1,.89a40.61,40.61,0,0,1,3.57-6.7,20,20,0,0,1,2.46-3.06,11.72,11.72,0,0,1,1.58-1.36,7.9,7.9,0,0,1,.94-.59c.16-.09.34-.17.52-.25l.38-.18a26.86,26.86,0,0,0,5.61-3.88,37.48,37.48,0,0,0,4.86-5c2.85-3.62,5-7.86,5-12.33a49.47,49.47,0,0,1,.6-7.46,27.25,27.25,0,0,1,.86-3.71,19.37,19.37,0,0,1,.68-1.83c.14-.3.28-.6.44-.91a6.64,6.64,0,0,1,.64-1l.08-.1.16-.11a33.19,33.19,0,0,0,5.81-5.17,34.69,34.69,0,0,0,4.54-6.45,32.78,32.78,0,0,0,2.88-7.38,33.57,33.57,0,0,0,.94-8h.3a30.82,30.82,0,0,1-2.8,16,35.77,35.77,0,0,1-4.41,7,35.25,35.25,0,0,1-2.78,3.09,26.31,26.31,0,0,1-3.21,2.77l.23-.21a6.52,6.52,0,0,0-.32.57c-.12.23-.23.48-.33.73a14.28,14.28,0,0,0-.53,1.6,23.78,23.78,0,0,0-.67,3.4,46.07,46.07,0,0,0-.34,7.06,19.48,19.48,0,0,1-1.48,7.67,29.73,29.73,0,0,1-3.9,6.6,40.4,40.4,0,0,1-5.2,5.5,30.35,30.35,0,0,1-6.36,4.34l-.44.2-.3.15a6.49,6.49,0,0,0-.6.37,9.89,9.89,0,0,0-1.18,1,19.48,19.48,0,0,0-2.11,2.59,37.9,37.9,0,0,0-3.38,6.07l-.32.74-.72.15a11.52,11.52,0,0,1-6.86-.84,25.81,25.81,0,0,1-5.57-3.25,55.13,55.13,0,0,1-9-8.68c-.67-.79-1.32-1.59-2-2.4s-1.25-1.61-1.88-2.35A16.93,16.93,0,0,0,74.64,281a7.29,7.29,0,0,0-5.23-1,18.48,18.48,0,0,0-2.81.84,6.53,6.53,0,0,1-1.7.4,2.18,2.18,0,0,1-1.09-.18l-.13-.06-.07,0a.52.52,0,0,1-.13-.09,1.13,1.13,0,0,1-.34-.47A3.3,3.3,0,0,1,63,280a23.48,23.48,0,0,1-.31-3.14c-.06-1-.09-2.05-.12-3.07l-.13-6.12-.15-12.22c-.11-8.15-.22-16.3-.45-24.44s-.41-16.3-.49-24.45,0-16.29.12-24.43c.24-16.3.69-32.59,1.58-48.87Z" transform="translate(-21.16 -48.94)"></path><path class="cls-3" d="M139.81,116.64a26.52,26.52,0,0,1,10.47-.25,30.65,30.65,0,0,1,5.15,1.32,35.28,35.28,0,0,1,4.92,2.06,44.86,44.86,0,0,1,4.59,2.7,47.14,47.14,0,0,1,4.23,3.22,42.25,42.25,0,0,1,7.21,7.73c4.16,5.71,6.89,12.23,9.07,18.75a69.1,69.1,0,0,1,3.69,20.39A40.85,40.85,0,0,1,188,183.09a39.68,39.68,0,0,1-4,9.95,46.5,46.5,0,0,1-14.54,15.59,67.13,67.13,0,0,1-19.19,8.55,87.44,87.44,0,0,1-20.43,3.07l-.08-.49A201.58,201.58,0,0,0,149,213.45c1.54-.64,3.09-1.26,4.58-2l2.26-1,2.2-1.13a79.46,79.46,0,0,0,8.38-5.08,49.88,49.88,0,0,0,13.51-13.62,42.15,42.15,0,0,0,4.22-8.67,43,43,0,0,0,2.29-9.53,41.21,41.21,0,0,0-2.48-19.69c-2.41-6.3-6.46-11.79-10.8-16.7a89,89,0,0,0-6.87-7,48.5,48.5,0,0,0-3.78-3.09c-1.29-1-2.64-1.91-4-2.78s-2.8-1.64-4.28-2.33l-1.11-.51-1.13-.46c-.75-.35-1.53-.59-2.3-.87a37.72,37.72,0,0,0-9.78-1.85Z" transform="translate(-21.16 -48.94)"></path><path class="cls-2" d="M338.7,123.43q.21,6.12.07,12.23t-.53,12.22c-.17,2-.34,4.07-.7,6.14,0,.25-.1.52-.15.78s-.17.61-.21.75a10.2,10.2,0,0,0-.25,1.39c-.12,1-.21,2-.28,3a64.43,64.43,0,0,0,.36,12.18c.48,4,.83,8.1,1.29,12.11.12,1,.26,2,.41,2.94s.43,1.92.68,2.89c.53,1.94,1.07,3.92,1.53,5.94a27.39,27.39,0,0,1,.81,6.27,59.92,59.92,0,0,1-.55,6.17,94.15,94.15,0,0,1-2.51,12,.1.1,0,0,1-.12.07.09.09,0,0,1-.07-.11c.46-4,.91-8.09,1.15-12.13.12-2,.21-4,.18-6a28.89,28.89,0,0,0-.91-5.79c-.48-1.94-1.06-3.88-1.57-5.87-.26-1-.52-2-.71-3.05s-.24-2.09-.33-3.12c-.3-4.1-.44-8.17-.35-12.26s0-8.15-.28-12.23c-.06-1-.11-2-.11-3.1a11.69,11.69,0,0,1,.09-1.63l.14-.75c0-.24.08-.47.11-.71.24-2,.4-4,.56-6,.66-8.08,1.16-16.21,2.05-24.32a.12.12,0,0,1,.11-.09A.11.11,0,0,1,338.7,123.43Z" transform="translate(-21.16 -48.94)"></path><path class="cls-2" d="M244.27,54.49a3.94,3.94,0,0,1,.61.89c.17.29.32.59.47.88.3.6.57,1.2.83,1.81.54,1.21,1,2.45,1.45,3.69a69.29,69.29,0,0,1,2.2,7.63,39.63,39.63,0,0,1,1.07,8,22,22,0,0,1-.32,4.1c-.06.34-.13.68-.22,1s-.2.69-.28,1c-.18.6-.31,1.23-.44,1.86a44.53,44.53,0,0,0-.71,7.76c-.05,2.61,0,5.22.25,7.83l.58,7.82.51,7.8.3,3.89.15,1.93.09,1,.05.47c0,.2,0,.42,0,.6a30.3,30.3,0,0,1-.25,4.14c-.16,1.33-.34,2.64-.53,3.94-.75,5.22-1.71,10.36-2.64,15.51s-1.91,10.29-2.8,15.43c-.44,2.57-.86,5.15-1.21,7.73-.18,1.29-.32,2.58-.41,3.87a12.15,12.15,0,0,0,.16,3.82l-.28.12a11.43,11.43,0,0,1-.6-4c0-1.32,0-2.64,0-4,.1-2.63.33-5.25.59-7.86.52-5.23,1.21-10.42,1.93-15.61L247.06,132c.16-1.28.31-2.57.43-3.85a34.42,34.42,0,0,0,.2-3.69c0-.14,0-.25,0-.37l0-.51-.09-1-.14-2c-.06-1.32-.1-2.63-.14-4-.05-2.63-.08-5.25,0-7.88s.19-5.25.35-7.88c.38-5.25.52-10.46.75-15.76,0-.67.09-1.33.18-2,0-.36.09-.66.12-.95s0-.61,0-.92a27.94,27.94,0,0,0-.24-3.74c-.31-2.51-.68-5-1.13-7.59s-1-5.08-1.49-7.62L245,58.45l-.42-1.91-.23-.95a6.59,6.59,0,0,0-.25-.86Z" transform="translate(-21.16 -48.94)"></path><path class="cls-2" d="M192.51,60.78a146.79,146.79,0,0,1,4.6,15.78q1,4,1.72,8t1.29,8.12c.66,5.46.86,11,1.12,16.43s.54,11-.3,16.51a92.23,92.23,0,0,0-.71,16.1c.1,2.7.3,5.4.5,8.1l.3,4.06c.1,1.32.24,2.64.41,4,.74,5.3,1.88,10.61,3.06,15.93.56,2.67,1.14,5.35,1.61,8.07.23,1.35.41,2.72.54,4.1a15.66,15.66,0,0,1-.05,4.16l-.3,0a31.87,31.87,0,0,0-1.61-7.91c-.76-2.61-1.57-5.21-2.37-7.82a122.5,122.5,0,0,1-3.95-16c-.22-1.38-.42-2.76-.54-4.16l-.29-4.11c-.15-2.74-.23-5.5-.21-8.26a79.44,79.44,0,0,1,.45-8.3,60.78,60.78,0,0,1,1.59-8.17,49.49,49.49,0,0,0,.89-16.13,162.11,162.11,0,0,0-2.62-16.1c-1-5.35-1.88-10.71-2.8-16.08S193,66.28,192.22,60.85Z" transform="translate(-21.16 -48.94)"></path><path class="cls-4" d="M248.9,124.82s8.31,5.37,6.44,12.26-5.49,17-3.76,18.69S232,140.41,248.9,124.82Z" transform="translate(-21.16 -48.94)"></path><path class="cls-5" d="M336.12,153.92s8.06,8.83,6.18,15-.27,11.93,1.28,13.46S322,167.56,336.12,153.92Z" transform="translate(-21.16 -48.94)"></path><path class="cls-3" d="M248.15,70.35s-7,7-4.36,11.43,1.68,8.86.32,10.07S263.79,79.82,248.15,70.35Z" transform="translate(-21.16 -48.94)"></path><circle class="cls-6" cx="227.42" cy="21.2" r="2.25"></circle><circle class="cls-6" cx="228.08" cy="75.01" r="2.28"></circle><circle class="cls-6" cx="315.3" cy="104.95" r="2.28"></circle><path class="cls-4" d="M193.15,53.65s-11.64,6.55-13.49,26.28c-1,10.39.87,27.11,10,42.61,0,0,1.66-16.31,3.91-22C199.34,86.11,207.73,70.75,193.15,53.65Z" transform="translate(-21.16 -48.94)"></path><path class="cls-7" d="M193.13,65.27A122.32,122.32,0,0,0,190,79.89c-1.31,7.91-1.69,16.51-1.4,18.68.33,2.48,1-7.72,2.34-18C192.29,70.68,193.13,65.27,193.13,65.27Z" transform="translate(-21.16 -48.94)"></path><ellipse class="cls-6" cx="192.36" cy="53.1" rx="4.16" ry="3.67" transform="translate(117.64 196.39) rotate(-89.86)"></ellipse><path class="cls-2" d="M294.74,75.77c.18,5.84.11,11.64,0,17.44l-.15,8.69c-.05,2.89-.18,5.77-.27,8.66a57.42,57.42,0,0,0,.18,8.61l1.16,8.67c.75,5.77,1.69,11.54,2.13,17.39.21,2.92.28,5.86.24,8.81a63.79,63.79,0,0,1-.72,8.89,31.22,31.22,0,0,1-1.06,4.45c-.12.37-.26.74-.39,1.11s-.24.58-.34.91a13.58,13.58,0,0,0-.42,1.88,35.56,35.56,0,0,0,0,8.31,131.26,131.26,0,0,0,3.14,16.94c1.38,5.61,2.91,11.22,4.57,16.79l-.28.1a162.8,162.8,0,0,1-6.21-16.36,105.84,105.84,0,0,1-4.11-17.13,34.75,34.75,0,0,1-.25-9.08,15.56,15.56,0,0,1,.48-2.37c.1-.38.29-.85.39-1.15s.23-.62.34-.94a28.76,28.76,0,0,0,1-4,97.36,97.36,0,0,0,1.23-17.07,143.8,143.8,0,0,0-.67-17.35,85.63,85.63,0,0,0-1.39-8.58,74.54,74.54,0,0,1-1.17-8.76,114.84,114.84,0,0,1,.14-17.5,156.07,156.07,0,0,1,2.11-17.36Z" transform="translate(-21.16 -48.94)"></path><ellipse class="cls-6" cx="293.86" cy="115.68" rx="3.32" ry="2.99" transform="translate(-41.99 93.39) rotate(-26.33)"></ellipse><path class="cls-3" d="M295.46,132.79S280,160.72,297.33,178c11.24,11.21,11.61,18,11.06,22.49S320.74,153,295.46,132.79Z" transform="translate(-21.16 -48.94)"></path><circle class="cls-6" cx="274.21" cy="83.37" r="2.65"></circle><path class="cls-7" d="M297.1,144s9,26.6,7.76,36.3" transform="translate(-21.16 -48.94)"></path><path class="cls-8" d="M278.8,282.8h-5.94q-4.65,0-4.65-4.7V265.65c0-1.54-.68-2.31-2-2.31l-4.43-.07v8.23h3.83v11.3H254.09V271.5h3.23V252.11h-3.23V240.68H266a8.72,8.72,0,0,1,5.9,2,6.58,6.58,0,0,1,2.29,5.24v8.16a6.05,6.05,0,0,1-.94,3.64,7.17,7.17,0,0,1-3.34,2.14,4.08,4.08,0,0,1,2.92,4v3.53a2.57,2.57,0,0,0,.42,1.77,2.8,2.8,0,0,0,1.84.41l3.68-.07Zm-11.94-23.27a4.24,4.24,0,0,0,2.36-.44,2.13,2.13,0,0,0,.57-1.74v-3.13c0-1.27-1-1.95-2.93-2l-5.11-.07v7.42Z" transform="translate(-21.16 -48.94)"></path><path class="cls-8" d="M289,265.79l-1.65,5.71h3.38v11.3h-11V271.5H283l5.11-19.39h-2.48V240.68h13.82v11.43H297l5.63,19.39h3.23v11.3h-11V271.5h3.37l-1.72-5.71Zm1.05-4.15h5.26l-2.63-9.53Z" transform="translate(-21.16 -48.94)"></path><path class="cls-8" d="M323,282.8l-7.36-29.67V271.5h2.77v11.3H307.93V271.5h3.31V252.11h-3.31V240.68h9.24l6.31,25.92V252.11h-2.41V240.68h10v11.43h-3.23V282.8Z" transform="translate(-21.16 -48.94)"></path><path class="cls-8" d="M351.48,273.75q0,9.25-8,9.25a8.08,8.08,0,0,1-6.45-2.79,9.53,9.53,0,0,1-2.18-6.39v-26.4q0-6.81,6.31-6.8a7.11,7.11,0,0,1,5.85,3.19v-3.13h4.43V258h-4.43v-2.79c0-2.13-1.27-3.24-3.83-3.33s-3.9,1.09-3.9,3.4V267.9q0,4.08,3.83,4.08t3.9-4v-2.45h4.43Z" transform="translate(-21.16 -48.94)"></path><path class="cls-8" d="M362.9,263.68v7.82h3.38v11.3h-11V271.5h3.23V252.11h-3.23V240.68h11v11.43H362.9v7.83h8.26v-7.83h-3.23V240.68h10.81v11.43h-3.08V271.5h3.08v11.3H367.93V271.5h3.23v-7.82Z" transform="translate(-21.16 -48.94)"></path></svg>